<svg width="1024" height="1024" viewBox="0 0 1024 1024" xmlns="http://www.w3.org/2000/svg">
  <rect x="0" y="0" width="1024" height="1024" rx="220" ry="220" fill="#FF6A00"/>

  <path d="M685.6 384c-12.8-115.2-108.8-204.8-227.2-204.8-102.4 0-188.8 64-217.6 153.6C127.2 345.6 48 441.6 48 556.8c0 128 102.4 230.4 230.4 230.4h435.2c115.2 0 204.8-89.6 204.8-204.8 0-108.8-83.2-192-189.6-198.4z" fill="#FFFFFF" fill-opacity="0.2"/>

  <path d="M512 288l-160 160h96v288h128v-288h96z" fill="#FFFFFF"/>

  <rect x="362" y="760" width="300" height="40" rx="20" fill="#FFFFFF"/>
</svg>
